<svg width="64" height="64" viewBox="0 0 64 64" fill="none" xmlns="http://www.w3.org/2000/svg">
<path d="M32 0C20 0 9.6 6.4 4.4 16.4L0 12V28H16L10 22C14 14 22.4 8 32 8C45.2 8 56 18.8 56 32C56 45.2 45.2 56 32 56C24.8 56 18.4 52.8 14 47.6L8 52.8C13.6 59.6 22.4 64 32 64C49.6 64 64 49.6 64 32C64 14.4 49.6 0 32 0Z" fill="white"/>
<path d="M27.6055 40H24.2188V26.9453L20.1758 28.1992V25.4453L27.2422 22.9141H27.6055V40ZM44.6445 32.9453C44.6445 35.3047 44.1562 37.1094 43.1797 38.3594C42.2031 39.6094 40.7734 40.2344 38.8906 40.2344C37.0312 40.2344 35.6094 39.6211 34.625 38.3945C33.6406 37.168 33.1367 35.4102 33.1133 33.1211V29.9805C33.1133 27.5977 33.6055 25.7891 34.5898 24.5547C35.582 23.3203 37.0078 22.7031 38.8672 22.7031C40.7266 22.7031 42.1484 23.3164 43.1328 24.543C44.1172 25.7617 44.6211 27.5156 44.6445 29.8047V32.9453ZM41.2578 29.5C41.2578 28.0859 41.0625 27.0586 40.6719 26.418C40.2891 25.7695 39.6875 25.4453 38.8672 25.4453C38.0703 25.4453 37.4805 25.7539 37.0977 26.3711C36.7227 26.9805 36.5234 27.9375 36.5 29.2422V33.3906C36.5 34.7812 36.6875 35.8164 37.0625 36.4961C37.4453 37.168 38.0547 37.5039 38.8906 37.5039C39.7188 37.5039 40.3164 37.1797 40.6836 36.5312C41.0508 35.8828 41.2422 34.8906 41.2578 33.5547V29.5Z" fill="white"/>
</svg>
