<svg width="64" height="64" viewBox="0 0 64 64" fill="none" xmlns="http://www.w3.org/2000/svg">
<path d="M61.7142 0H2.28576C1.02335 0 0 1.02335 0 2.28576V61.7142C0 62.9767 1.02335 64 2.28576 64H61.7142C62.9767 64 64 62.9767 64 61.7142V2.28576C64 1.02335 62.9767 0 61.7142 0ZM59.4285 59.4285H4.57138V4.57138H59.4285V59.4285Z" fill="white"/>
<path d="M52.5714 9.14294H43.4285C42.166 9.14294 41.1427 10.1663 41.1427 11.4287C41.1427 12.6911 42.166 13.7145 43.4285 13.7145H47.0536L34.9553 25.8128C34.0628 26.7055 34.0631 28.1528 34.9559 29.0453C35.3844 29.4737 35.9654 29.7144 36.5715 29.7145C37.1776 29.7144 37.7589 29.4734 38.1874 29.0447L50.2857 16.9464V20.5715C50.2857 21.8339 51.3091 22.8572 52.5715 22.8572C53.8339 22.8572 54.8571 21.8339 54.8571 20.5715V11.4286C54.8571 10.1663 53.8338 9.14294 52.5714 9.14294Z" fill="white"/>
<path d="M52.5713 41.1428C51.3089 41.1428 50.2855 42.1662 50.2855 43.4286V47.0537L38.1872 34.9554C37.2792 34.0785 35.8322 34.1037 34.9553 35.0117C34.0999 35.8975 34.0999 37.3017 34.9553 38.1874L47.0536 50.2857H43.4284C42.166 50.2857 41.1426 51.309 41.1426 52.5715C41.1426 53.8339 42.166 54.8572 43.4284 54.8572H52.5713C53.8337 54.8572 54.857 53.8339 54.857 52.5715V43.4286C54.857 42.1662 53.8337 41.1428 52.5713 41.1428Z" fill="white"/>
<path d="M28.9885 34.9555C28.1027 34.1 26.6984 34.1 25.8126 34.9555L13.7143 47.0537V43.4285C13.7143 42.1661 12.691 41.1427 11.4286 41.1427C10.1662 41.1427 9.14282 42.1661 9.14282 43.4285V52.5714C9.14389 53.4955 9.7013 54.3281 10.5554 54.6812C10.8319 54.797 11.1287 54.8569 11.4284 54.8571H20.5715C21.8339 54.8571 22.8572 53.8338 22.8572 52.5714C22.8572 51.309 21.8339 50.2856 20.5715 50.2856H16.9463L29.0446 38.1873C29.9216 37.2794 29.8964 35.8325 28.9885 34.9555Z" fill="white"/>
<path d="M29.0446 25.8126L16.9463 13.7143H20.5715C21.8339 13.7143 22.8572 12.6909 22.8572 11.4285C22.8572 10.1661 21.8339 9.14276 20.5715 9.14276H11.4286C10.1662 9.14276 9.14282 10.1661 9.14282 11.4285V20.5714C9.14282 21.8338 10.1662 22.8572 11.4286 22.8572C12.691 22.8572 13.7143 21.8338 13.7143 20.5714V16.9462L25.8126 29.0445C26.7207 29.9215 28.1676 29.8965 29.0446 28.9884C29.9001 28.1026 29.9001 26.6984 29.0446 25.8126Z" fill="white"/>
</svg>
