<svg width="64" height="64" viewBox="0 0 65 64" fill="none" xmlns="http://www.w3.org/2000/svg">
<path d="M21.4669 0H5.46699C2.82054 0 0.666992 1.79463 0.666992 4V60C0.666992 62.2054 2.82054 64 5.46699 64H21.467C24.1135 64 26.267 62.2054 26.267 60V4C26.2669 1.79463 24.1133 0 21.4669 0Z" fill="white"/>
<path d="M59.8669 0H43.867C41.2206 0 39.067 1.79463 39.067 4V60C39.067 62.2054 41.2206 64 43.867 64H59.8671C62.5135 64 64.6671 62.2054 64.6671 60V4C64.6669 1.79463 62.5134 0 59.8669 0Z" fill="white"/>
</svg>
