<svg width="64" height="64" viewBox="0 0 64 64" fill="none" xmlns="http://www.w3.org/2000/svg">
<path d="M61.7142 0H2.28576C1.02335 0 0 1.02335 0 2.28576V61.7142C0 62.9767 1.02335 64 2.28576 64H61.7142C62.9767 64 64 62.9767 64 61.7142V2.28576C64 1.02335 62.9767 0 61.7142 0ZM59.4285 59.4285H4.57138V4.57138H59.4285V59.4285Z" fill="white"/>
<path d="M36.5718 29.7145L45.7147 29.7145C46.9771 29.7145 48.0005 28.6911 48.0005 27.4287C48.0005 26.1663 46.9771 25.143 45.7147 25.143L42.0896 25.143L54.1878 13.0447C55.0803 12.1519 55.0801 10.7047 54.1873 9.81217C53.7587 9.38373 53.1778 9.14307 52.5717 9.14293C51.9656 9.14307 51.3843 9.384 50.9558 9.81271L38.8575 21.911L38.8575 18.286C38.8575 17.0235 37.8341 16.0002 36.5717 16.0002C35.3093 16.0002 34.2861 17.0235 34.2861 18.286L34.2861 27.4289C34.2861 28.6911 35.3094 29.7145 36.5718 29.7145Z" fill="white"/>
<path d="M9.8405 54.2155C10.7263 55.071 12.1305 55.071 13.0163 54.2155L25.1146 42.1173L25.1146 45.7425C25.1146 47.0049 26.138 48.0282 27.4004 48.0282C28.6628 48.0282 29.6862 47.0049 29.6862 45.7425L29.6862 36.5996C29.6851 35.6755 29.1277 34.8428 28.2736 34.4898C27.9971 34.374 27.7003 34.3141 27.4005 34.3138L18.2575 34.3138C16.9951 34.3138 15.9717 35.3372 15.9717 36.5996C15.9717 37.862 16.9951 38.8853 18.2575 38.8853L21.8827 38.8853L9.78438 50.9836C8.90742 51.8915 8.9326 53.3385 9.8405 54.2155Z" fill="white"/>
</svg>
