<svg width="64" height="53" viewBox="0 0 64 53" fill="none" xmlns="http://www.w3.org/2000/svg">
<path d="M28.2116 0.119969C27.6832 -0.111576 27.0596 -0.00221268 26.6377 0.398424L11.6577 14.5462H1.45459C0.650591 14.5462 0 15.1968 0 16.0006V36.3642C0 37.1682 0.650591 37.8188 1.45459 37.8188H11.6577L26.6378 51.9666C26.9134 52.228 27.2727 52.3643 27.6364 52.3643C27.831 52.3643 28.0271 52.326 28.2117 52.245C28.7459 52.0163 29.091 51.4908 29.091 50.9097V1.45524C29.0909 0.874197 28.7457 0.348651 28.2116 0.119969Z" fill="white"/>
<path d="M35.7889 18.03L33.7163 20.1026C33.2383 20.5805 33.1108 21.3527 33.51 21.8982C34.3894 23.1008 34.9091 24.5821 34.9091 26.1825C34.9091 27.7828 34.3894 29.2642 33.51 30.4666C33.1108 31.0121 33.2383 31.7844 33.7163 32.2624L35.7889 34.3348C36.4237 34.9698 37.4606 34.872 38.0089 34.1608C39.7127 31.9507 40.7273 29.1829 40.7273 26.1825C40.7273 23.1819 39.7127 20.4142 38.0089 18.204C37.4606 17.4928 36.4237 17.3951 35.7889 18.03Z" fill="white"/>
<path d="M46.1486 9.80603C45.6018 9.1883 44.628 9.19076 44.0448 9.77412L41.9868 11.8321C41.4355 12.3833 41.4407 13.2496 41.95 13.8395C44.8124 17.1541 46.5456 21.4696 46.5456 26.1824C46.5456 30.8951 44.8124 35.2106 41.95 38.5255C41.4405 39.1154 41.4356 39.9814 41.9868 40.5326L44.0448 42.5906C44.628 43.1741 45.6018 43.1764 46.1489 42.5588C50.0143 38.1942 52.3637 32.4575 52.3637 26.1825C52.3637 19.9073 50.0143 14.1706 46.1486 9.80603Z" fill="white"/>
</svg>
